<svg width="40" height="40" viewBox="0 0 40 40" fill="none" xmlns="http://www.w3.org/2000/svg">
<g clip-path="url(#clip0)">
<path d="M21.1537 1.13208C21.1537 0.506848 20.6371 0 19.9999 0C19.3626 0 18.846 0.506848 18.846 1.13208V3.39623C18.846 4.02146 19.3626 4.52831 19.9999 4.52831C20.6371 4.52831 21.1537 4.02146 21.1537 3.39623V1.13208Z" fill="#CED7E1"/>
<path d="M28.555 2.26402C29.0056 1.82188 29.0055 1.10509 28.5549 0.66302C28.1043 0.220956 27.3735 0.220878 26.923 0.663019L25.291 2.26415C24.8404 2.7063 24.8404 3.42315 25.291 3.86529C25.7417 4.30743 26.4723 4.30743 26.923 3.86529L28.555 2.26402Z" fill="#CED7E1"/>
<path d="M13.0214 0.612077C12.5643 0.218953 11.8747 0.241235 11.4449 0.66302C10.9943 1.10516 10.9942 1.82209 11.4449 2.26416L13.0768 3.86529L13.1322 3.91623C13.5902 4.31275 14.2838 4.29036 14.7143 3.86514C15.1634 3.42154 15.1609 2.70475 14.7087 2.26415L13.0768 0.66302L13.0214 0.612077Z" fill="#CED7E1"/>
<path fill-rule="evenodd" clip-rule="evenodd" d="M4.48309 10.0739C5.02309 8.5604 6.47906 7.54712 8.11347 7.54712H32.5231C34.2216 7.54712 35.7189 8.64035 36.2069 10.2366L40 22.6415V36.2264C40 38.3106 38.2781 40 36.1538 40H3.84615C1.72192 40 0 38.3106 0 36.2264V22.6415L4.48309 10.0739ZM30.1525 9.81128C31.8528 9.81128 33.3513 10.9065 33.8379 12.5049L36.9233 22.6415V24.5283C36.9233 25.5703 36.0623 26.4151 35.0002 26.4151H25.7695C25.7695 29.5411 23.1864 32.0755 20.0002 32.0755C16.8541 32.0755 14.2964 29.6049 14.2321 26.5336L14.231 26.4151H5.00023C3.93814 26.4151 3.07715 25.5703 3.07715 24.5283V22.6415L6.73407 12.3434C7.27248 10.8271 8.72986 9.81128 10.3664 9.81128H30.1525Z" fill="#CED7E1"/>
</g>
<defs>
<clipPath id="clip0">
<path d="M0 0H40V40H0V0Z" fill="white"/>
</clipPath>
</defs>
</svg>
