<?xml version="1.0" encoding="UTF-8"?>
<svg width="30px" height="30px" viewBox="0 0 30 30" version="1.1" xmlns="http://www.w3.org/2000/svg" xmlns:xlink="http://www.w3.org/1999/xlink">
    <!-- Generator: Sketch 63 (92445) - https://sketch.com -->
    <title>编组 11</title>
    <desc>Created with Sketch.</desc>
    <defs>
        <linearGradient x1="0%" y1="0%" x2="100%" y2="100%" id="linearGradient-1">
            <stop stop-color="#5DF2CB" offset="0%"></stop>
            <stop stop-color="#3093DA" offset="100%"></stop>
        </linearGradient>
    </defs>
    <g id="页面-1" stroke="none" stroke-width="1" fill="none" fill-rule="evenodd">
        <g id="主界面" transform="translate(-1390.000000, -80.000000)">
            <g id="编组-6" transform="translate(260.000000, 80.000000)">
                <g id="编组-5" transform="translate(730.000000, 0.000000)">
                    <g id="编组-11" transform="translate(400.000000, 0.000000)">
                        <rect id="矩形备份-62" fill="url(#linearGradient-1)" x="0" y="0" width="30" height="30" rx="15"></rect>
                        <g id="刷新-(1)" transform="translate(4.000000, 6.000000)" fill="#FFFFFF" fill-rule="nonzero">
                            <path d="M15.0350381,14.6784516 C13.8109252,15.4896591 12.3827976,15.8952618 10.9206669,15.8843003 C10.7279824,15.8843003 10.5352988,15.873338 10.3426136,15.8623757 L10.1045917,15.8294889 C9.95724482,15.8075643 9.80989714,15.7966022 9.66255091,15.7637154 C9.57187581,15.7527531 9.48120092,15.7198664 9.40185951,15.7089041 C9.25451266,15.6760173 9.11850074,15.6431305 8.98248819,15.6102438 L8.77846938,15.5444702 C8.61978801,15.4896589 8.46110747,15.44581 8.30242548,15.3800364 C8.26842234,15.3690742 8.2344192,15.3471497 8.20041607,15.3361875 C8.01906608,15.2594518 7.83771526,15.1827159 7.66769958,15.0950186 C7.65636521,15.0950186 7.65636521,15.0840563 7.64503075,15.0840563 C7.05564376,14.7771139 6.52292727,14.3934343 6.04688337,13.9439812 L6.02421454,13.9220566 L6.02421397,13.9220561 C5.87859715,13.7812076 5.73870094,13.6349332 5.60484265,13.4835666 C5.58217382,13.4506798 5.54817069,13.417793 5.52550207,13.3849063 C4.55074481,12.2338696 3.9726915,10.786844 3.9726915,9.21924296 L5.60484203,9.21924296 C5.65017947,9.21924296 5.68418261,9.19731839 5.70685143,9.16443163 L5.70685144,9.16443162 C5.729524,9.13118054 5.729524,9.08806002 5.70685143,9.05480914 L2.96393734,5.14127634 C2.94126851,5.10838958 2.90726538,5.08646501 2.86192793,5.08646501 C2.81659048,5.08646501 2.78258735,5.10838958 2.75991852,5.14127634 L0.0170044287,9.04382949 L0.0170044197,9.04382951 C-0.00566814242,9.07708058 -0.00566814242,9.1202011 0.0170044348,9.15345198 C0.0396732612,9.18633874 0.0850107065,9.20826332 0.119013842,9.20826332 L1.75116437,9.20826332 C1.75116437,11.049922 2.35188712,12.7709893 3.38331489,14.1851361 L3.41731802,14.2509096 C3.51932743,14.3934189 3.64400629,14.5249653 3.75734938,14.667476 C3.80268683,14.7222873 3.83668996,14.7770985 3.88202762,14.8209476 C4.0520433,15.0182682 4.23339266,15.1936636 4.4147441,15.3800226 L4.47141607,15.4348339 C5.0948062,16.0267956 5.78620468,16.5200971 6.54560736,16.9147382 C6.56827618,16.9257005 6.5909448,16.9366628 6.60227932,16.947625 C6.81763182,17.0572475 7.04432008,17.1559072 7.27100835,17.2545674 C7.32768031,17.276492 7.38435207,17.3093788 7.44102403,17.3313032 C7.63370853,17.4080389 7.83772797,17.4738124 8.04174679,17.5395853 C8.13242189,17.5724721 8.23443129,17.6053588 8.32510556,17.6272834 C8.50645555,17.6820948 8.68780637,17.7149815 8.86915574,17.7588305 C8.99383397,17.780755 9.10717769,17.8136418 9.23185654,17.8355662 C9.28852851,17.8465284 9.33386595,17.8574908 9.3792034,17.8684529 C9.54921908,17.9013397 9.71923476,17.9123019 9.90058412,17.9342265 C9.96859039,17.9451887 10.0252624,17.9451887 10.0819341,17.956151 C10.3879623,17.9890378 10.6939906,18 11.0000188,18 C12.8815249,18 14.7177005,17.4518866 16.2931681,16.4104738 C16.7918814,16.0816062 16.9165582,15.4238709 16.5651932,14.9415311 C16.2251618,14.4591912 15.5337654,14.3495693 15.035052,14.678437 L15.0350381,14.6784516 Z M21.9830177,8.83557144 C21.9603489,8.80268468 21.9263458,8.7807601 21.8810083,8.7807601 L20.2488578,8.7807601 C20.2488578,6.93910139 19.648135,5.22899374 18.6167073,3.81486695 C18.6053729,3.79294238 18.5940384,3.771018 18.5713698,3.73813124 C18.4466916,3.56273524 18.2993447,3.40926361 18.1633322,3.2448298 C18.1519978,3.22290522 18.129329,3.20098085 18.1179947,3.17905627 C17.1772406,2.0937931 15.9984646,1.26066244 14.6610023,0.72350864 C14.6269992,0.712546393 14.5929961,0.690621878 14.5476586,0.67965969 C14.3323061,0.591961589 14.1169515,0.526188064 13.901599,0.449452351 C13.8222585,0.427527776 13.7429177,0.394641013 13.6635771,0.372716638 C13.4708926,0.3179053 13.2782089,0.27405635 13.0855238,0.2302074 C12.9721801,0.208282824 12.8701713,0.175396061 12.7568261,0.164433874 C12.7001541,0.153471627 12.6548167,0.142509299 12.5981447,0.131547111 C12.4507979,0.109622536 12.3034502,0.0986603485 12.156104,0.0767357731 L11.8500757,0.0438490103 C11.6007201,0.0219244349 11.3626982,0.0109622476 11.1133404,0.0109622476 C11.068003,0.0109622476 11.0226653,0 10.9773279,0 L10.9546591,0 C9.07315291,0 7.24830896,0.53714979 5.6728414,1.5895262 C5.17412805,1.91839383 5.04945127,2.57612908 5.40081631,3.05846894 C5.75218136,3.5298452 6.44357984,3.65043067 6.94229112,3.32156304 C8.15507032,2.51035556 9.57186834,2.10475282 11.0226674,2.1157144 C11.2266862,2.1157144 11.4420387,2.12667665 11.6460576,2.14860117 C11.7140638,2.15956341 11.7707358,2.15956341 11.8274075,2.17052574 C11.9974232,2.19245032 12.1561052,2.21437469 12.3261209,2.24726145 C12.3941272,2.2582237 12.4734677,2.28014822 12.5414734,2.2911104 C12.7001548,2.32399717 12.8588353,2.36784612 13.0175173,2.41169527 C13.0628547,2.42265752 13.1195267,2.44458203 13.1648642,2.45554422 C13.3462141,2.51035556 13.5162292,2.57612908 13.6862449,2.64190261 C13.7089137,2.65286485 13.720248,2.65286485 13.7429168,2.66382718 C14.7743446,3.0913551 15.6810956,3.73812877 16.3951573,4.54933425 L16.4064917,4.56029649 C17.4265857,5.70037161 18.0273085,7.18027794 18.0273085,8.78075769 L16.395158,8.78075769 C16.3498205,8.78075769 16.3158174,8.80268227 16.2931486,8.83556903 L16.2931486,8.83556904 C16.270476,8.86882012 16.270476,8.91194064 16.2931486,8.94519152 L19.0360627,12.8477447 C19.0587315,12.8806314 19.0927346,12.902556 19.1380721,12.902556 C19.1834095,12.902556 19.2174127,12.8806314 19.2400815,12.8477447 L21.9829956,8.94519152 L21.9829956,8.94519151 C22.0056681,8.91194043 22.0056681,8.86881991 21.9829956,8.83556904 L21.9830177,8.83557144 Z" id="形状"></path>
                        </g>
                    </g>
                </g>
            </g>
        </g>
    </g>
</svg>
